# xmcd
#
# Track frame offsets:
#	150
#	22872
#	45861
#	70405
#	89381
#	102198
#
# Disc length: 1660 seconds
#
# Revision: 1
# Processed by: cddbd v1.5.2PL0 Copyright (c) Steve Scherf et al.
# Submitted via: audiograbber 1.83.01
#
DISCID=3d067a06
DTITLE=Christian Mistress - Agony and Opium
DYEAR=2010
DGENRE=metal
TTITLE0=Riding On The Edges
TTITLE1=Desert Rose
TTITLE2=Home In The Sun
TTITLE3=Poison Path
TTITLE4=Black Vigil
TTITLE5=Omega Stone
EXTD=
EXTT0=
EXTT1=
EXTT2=
EXTT3=
EXTT4=
EXTT5=
PLAYORDER=
